<svg xmlns="http://www.w3.org/2000/svg" width="787" height="584" viewBox="0 0 787 584"><defs><linearGradient id="a" x1="48.024%" x2="55.091%" y1="73.209%" y2="32.517%"><stop offset="0%" stop-color="#70B"/><stop offset="100%" stop-color="#00008B"/></linearGradient><linearGradient id="b" x1="51.024%" x2="48.85%" y1="-1.842%" y2="108.309%"><stop offset="0%" stop-color="#88CFDA"/><stop offset=".834%" stop-color="#89CFD9"/><stop offset="47.84%" stop-color="#C8D9BB"/><stop offset="82.18%" stop-color="#F0DFA7"/><stop offset="100%" stop-color="#FFE1A0"/></linearGradient><linearGradient id="c" x1="25.872%" x2="91.883%" y1="74.058%" y2="1.005%"><stop stop-color="#00008B"/><stop/></linearGradient><linearGradient id="d" x1="37.125%" x2="81.359%" y1="80.238%" y2="22.218%"><stop offset="0%" stop-color="#7633FF"/><stop offset="15.85%" stop-color="#7137FF"/><stop offset="35.35%" stop-color="#6243FF"/><stop offset="56.76%" stop-color="#4957FF"/><stop offset="79.37%" stop-color="#2672FF"/><stop offset="100%" stop-color="#0090FF"/></linearGradient><linearGradient id="e" x1="47.187%" x2="42.559%" y1="50.559%" y2="51.467%"><stop offset="7.43%" stop-color="#CEC228"/><stop offset="58%" stop-color="#B2AE18"/></linearGradient><linearGradient id="f" x1="47.072%" x2="52.257%" y1="51.835%" y2="48.589%"><stop offset="0%" stop-color="#70B"/><stop offset="100%" stop-color="#00008B"/><stop offset="100%"/></linearGradient><linearGradient id="g" x1="6.228%" x2="93.768%" y1="53.554%" y2="46.448%"><stop offset="0%" stop-color="#70B"/><stop offset="100%" stop-color="#00008B"/><stop offset="100%"/></linearGradient><linearGradient id="h" x1="6.852%" x2="93.153%" y1="54.065%" y2="45.939%"><stop offset="0%" stop-color="#70B"/><stop offset="100%" stop-color="#00008B"/><stop offset="100%"/></linearGradient><linearGradient id="i" x1="74.13%" x2="8.119%" y1="74.054%" y2="1.001%"><stop stop-color="#00008B"/><stop/></linearGradient><linearGradient id="j" x1="38.926%" x2="78.121%" y1="76.826%" y2="30.878%"><stop offset="0%" stop-color="#59023F"/><stop offset="11.89%" stop-color="#590444"/><stop offset="26.52%" stop-color="#5A0A53"/><stop offset="42.58%" stop-color="#5C156C"/><stop offset="59.69%" stop-color="#5E238F"/><stop offset="77.61%" stop-color="#6135BC"/><stop offset="95.95%" stop-color="#644CF2"/><stop offset="100%" stop-color="#6551FF"/></linearGradient><linearGradient id="k" x1="48.969%" x2="47.186%" y1="51.557%" y2="54.125%"><stop offset="7.43%" stop-color="#CEC228"/><stop offset="58%" stop-color="#B2AE18"/></linearGradient><linearGradient id="l" x1="42.93%" x2="55.444%" y1="55.456%" y2="45.805%"><stop offset="0%" stop-color="#70B"/><stop offset="100%" stop-color="#00008B"/><stop offset="100%"/></linearGradient><linearGradient id="m" x1="14.327%" x2="85.676%" y1="51.167%" y2="48.533%"><stop offset="0%" stop-color="#70B"/><stop offset="100%" stop-color="#00008B"/><stop offset="100%"/></linearGradient><linearGradient id="n" x1="65.766%" x2="-17.647%" y1="58.442%" y2="7.154%"><stop offset="0%" stop-color="#7633FF"/><stop offset="15.85%" stop-color="#7137FF"/><stop offset="35.35%" stop-color="#6243FF"/><stop offset="56.76%" stop-color="#4957FF"/><stop offset="79.37%" stop-color="#2672FF"/><stop offset="100%" stop-color="#0090FF"/></linearGradient><linearGradient id="o" x1="56.647%" x2="67.379%" y1="52.416%" y2="56.394%"><stop offset="7.43%" stop-color="#CEC228"/><stop offset="58%" stop-color="#B2AE18"/></linearGradient><linearGradient id="p" x1="58.093%" x2="16.852%" y1="77.708%" y2="25.596%"><stop offset="0%" stop-color="#59023F"/><stop offset="11.89%" stop-color="#590444"/><stop offset="26.52%" stop-color="#5A0A53"/><stop offset="42.58%" stop-color="#5C156C"/><stop offset="59.69%" stop-color="#5E238F"/><stop offset="77.61%" stop-color="#6135BC"/><stop offset="95.95%" stop-color="#644CF2"/><stop offset="100%" stop-color="#6551FF"/></linearGradient><linearGradient id="q" x1="51.556%" x2="54.111%" y1="50.998%" y2="52.622%"><stop offset="7.43%" stop-color="#CEC228"/><stop offset="58%" stop-color="#B2AE18"/></linearGradient><linearGradient id="r" x1="55.775%" x2="45.561%" y1="54.348%" y2="46.642%"><stop offset="0%" stop-color="#70B"/><stop offset="100%" stop-color="#00008B"/><stop offset="100%"/></linearGradient><linearGradient id="s" x1="87.721%" x2="12.281%" y1="52.152%" y2="47.608%"><stop offset="0%" stop-color="#70B"/><stop offset="100%" stop-color="#00008B"/><stop offset="100%"/></linearGradient><linearGradient id="t" x1="104.314%" x2="-3.675%" y1="68.995%" y2="30.108%"><stop offset="0%" stop-color="#70B"/><stop offset="100%" stop-color="#00008B"/><stop offset="100%"/></linearGradient><linearGradient id="u" x1="22.698%" x2="72.348%" y1="27.567%" y2="60.539%"><stop offset="0%" stop-color="#7633FF"/><stop offset="15.85%" stop-color="#7137FF"/><stop offset="35.35%" stop-color="#6243FF"/><stop offset="56.76%" stop-color="#4957FF"/><stop offset="79.37%" stop-color="#2672FF"/><stop offset="100%" stop-color="#0090FF"/></linearGradient><linearGradient id="v" x1="23.172%" x2="77.112%" y1="27.972%" y2="62.09%"><stop offset="0%" stop-color="#7633FF"/><stop offset="15.85%" stop-color="#7137FF"/><stop offset="35.35%" stop-color="#6243FF"/><stop offset="56.76%" stop-color="#4957FF"/><stop offset="79.37%" stop-color="#2672FF"/><stop offset="100%" stop-color="#0090FF"/></linearGradient><linearGradient id="w" x1="21.048%" x2="79.746%" y1="26.944%" y2="62.997%"><stop offset="0%" stop-color="#7633FF"/><stop offset="15.85%" stop-color="#7137FF"/><stop offset="35.35%" stop-color="#6243FF"/><stop offset="56.76%" stop-color="#4957FF"/><stop offset="79.37%" stop-color="#2672FF"/><stop offset="100%" stop-color="#0090FF"/></linearGradient><linearGradient id="x" x1="19.844%" x2="81.764%" y1="28.273%" y2="65.7%"><stop offset="0%" stop-color="#7633FF"/><stop offset="15.85%" stop-color="#7137FF"/><stop offset="35.35%" stop-color="#6243FF"/><stop offset="56.76%" stop-color="#4957FF"/><stop offset="79.37%" stop-color="#2672FF"/><stop offset="100%" stop-color="#0090FF"/></linearGradient><linearGradient id="y" x1="2.297%" x2="98.172%" y1="36.849%" y2="68.46%"><stop offset="0%" stop-color="#7633FF"/><stop offset="15.85%" stop-color="#7137FF"/><stop offset="35.35%" stop-color="#6243FF"/><stop offset="56.76%" stop-color="#4957FF"/><stop offset="79.37%" stop-color="#2672FF"/><stop offset="100%" stop-color="#0090FF"/></linearGradient><linearGradient id="z" x1="2.479%" x2="103.31%" y1="28.656%" y2="74.655%"><stop offset="0%" stop-color="#7633FF"/><stop offset="15.85%" stop-color="#7137FF"/><stop offset="35.35%" stop-color="#6243FF"/><stop offset="56.76%" stop-color="#4957FF"/><stop offset="79.37%" stop-color="#2672FF"/><stop offset="100%" stop-color="#0090FF"/></linearGradient><linearGradient id="A" x1="77.291%" x2="27.641%" y1="27.555%" y2="60.527%"><stop offset="0%" stop-color="#7633FF"/><stop offset="15.85%" stop-color="#7137FF"/><stop offset="35.35%" stop-color="#6243FF"/><stop offset="56.76%" stop-color="#4957FF"/><stop offset="79.37%" stop-color="#2672FF"/><stop offset="100%" stop-color="#0090FF"/></linearGradient><linearGradient id="B" x1="76.813%" x2="22.874%" y1="28.059%" y2="62.177%"><stop offset="0%" stop-color="#7633FF"/><stop offset="15.85%" stop-color="#7137FF"/><stop offset="35.35%" stop-color="#6243FF"/><stop offset="56.76%" stop-color="#4957FF"/><stop offset="79.37%" stop-color="#2672FF"/><stop offset="100%" stop-color="#0090FF"/></linearGradient><linearGradient id="C" x1="78.934%" x2="20.238%" y1="26.93%" y2="62.982%"><stop offset="0%" stop-color="#7633FF"/><stop offset="15.85%" stop-color="#7137FF"/><stop offset="35.35%" stop-color="#6243FF"/><stop offset="56.76%" stop-color="#4957FF"/><stop offset="79.37%" stop-color="#2672FF"/><stop offset="100%" stop-color="#0090FF"/></linearGradient><linearGradient id="D" x1="80.141%" x2="18.225%" y1="28.346%" y2="65.772%"><stop offset="0%" stop-color="#7633FF"/><stop offset="15.85%" stop-color="#7137FF"/><stop offset="35.35%" stop-color="#6243FF"/><stop offset="56.76%" stop-color="#4957FF"/><stop offset="79.37%" stop-color="#2672FF"/><stop offset="100%" stop-color="#0090FF"/></linearGradient><linearGradient id="E" x1="97.771%" x2="1.894%" y1="36.858%" y2="68.456%"><stop offset="0%" stop-color="#7633FF"/><stop offset="15.85%" stop-color="#7137FF"/><stop offset="35.35%" stop-color="#6243FF"/><stop offset="56.76%" stop-color="#4957FF"/><stop offset="79.37%" stop-color="#2672FF"/><stop offset="100%" stop-color="#0090FF"/></linearGradient><linearGradient id="F" x1="97.534%" x2="-3.11%" y1="28.731%" y2="74.692%"><stop offset="0%" stop-color="#7633FF"/><stop offset="15.85%" stop-color="#7137FF"/><stop offset="35.35%" stop-color="#6243FF"/><stop offset="56.76%" stop-color="#4957FF"/><stop offset="79.37%" stop-color="#2672FF"/><stop offset="100%" stop-color="#0090FF"/></linearGradient><linearGradient id="G" x1="51.233%" x2="48.994%" y1="50.968%" y2="48.804%"><stop offset="0%" stop-color="#70B"/><stop offset="100%" stop-color="#00008B"/></linearGradient><linearGradient id="H" x1="101.705%" x2="3.106%" y1="28.025%" y2="69.93%"><stop offset="0%" stop-color="#7981FF"/><stop offset="13.45%" stop-color="#7E85FF"/><stop offset="28.66%" stop-color="#8B92FF"/><stop offset="44.72%" stop-color="#A2A7FF"/><stop offset="61.37%" stop-color="#C2C5FF"/><stop offset="78.32%" stop-color="#EAEBFF"/><stop offset="86.1%" stop-color="#FFF"/></linearGradient><linearGradient id="I" x1="0%" x2="99.999%" y1="50.007%" y2="50.007%"><stop offset="0%" stop-color="#7633FF"/><stop offset="15.85%" stop-color="#7137FF"/><stop offset="35.35%" stop-color="#6243FF"/><stop offset="56.76%" stop-color="#4957FF"/><stop offset="79.37%" stop-color="#2672FF"/><stop offset="100%" stop-color="#0090FF"/></linearGradient><linearGradient id="J" x1=".169%" x2="100.04%" y1="50.002%" y2="50.002%"><stop offset="0%" stop-color="#00A49A"/><stop offset="3.99%" stop-color="#00A198"/><stop offset="67.1%" stop-color="#007A7B"/><stop offset="100%" stop-color="#006B70"/></linearGradient><linearGradient id="K" x1=".007%" x2="100.003%" y1="49.997%" y2="49.997%"><stop offset="0%" stop-color="#00A49A"/><stop offset="41.18%" stop-color="#007477"/><stop offset="79.9%" stop-color="#004C5A"/><stop offset="100%" stop-color="#003D4F"/></linearGradient><linearGradient id="L" x1="89.521%" x2="-10.508%" y1="40.401%" y2="59.702%"><stop offset="0%" stop-color="#00A49A"/><stop offset="41.18%" stop-color="#007477"/><stop offset="79.9%" stop-color="#004C5A"/><stop offset="100%" stop-color="#003D4F"/></linearGradient><linearGradient id="M" x1="-.002%" x2="99.995%" y1="49.998%" y2="49.998%"><stop offset="0%" stop-color="#311341"/><stop offset="22.99%" stop-color="#3113C2"/><stop offset="34.79%" stop-color="#2F18C5"/><stop offset="49.31%" stop-color="#2927CC"/><stop offset="65.24%" stop-color="#1F40D8"/><stop offset="82.19%" stop-color="#1263E9"/><stop offset="99.78%" stop-color="#008FFF"/><stop offset="100%" stop-color="#0090FF"/></linearGradient><linearGradient id="N" x1=".001%" x2="99.994%" y1="49.994%" y2="49.994%"><stop offset="0%" stop-color="#7633FF"/><stop offset="15.85%" stop-color="#7137FF"/><stop offset="35.35%" stop-color="#6243FF"/><stop offset="56.76%" stop-color="#4957FF"/><stop offset="79.37%" stop-color="#2672FF"/><stop offset="100%" stop-color="#0090FF"/></linearGradient><linearGradient id="O" x1="-.003%" x2="99.972%" y1="50.002%" y2="50.002%"><stop offset="0%" stop-color="#A1BAFF"/><stop offset="43.32%" stop-color="#FFF"/></linearGradient><linearGradient id="P" x1="-.006%" x2="99.992%" y1="50.004%" y2="50.004%"><stop offset="0%" stop-color="#00A49A"/><stop offset="3.99%" stop-color="#00A198"/><stop offset="67.1%" stop-color="#007A7B"/><stop offset="100%" stop-color="#006B70"/></linearGradient><linearGradient id="Q" x1="28.569%" x2="103.34%" y1="13.091%" y2="86.155%"><stop offset="0%" stop-color="#00A49A"/><stop offset="3.99%" stop-color="#00A198"/><stop offset="67.1%" stop-color="#007A7B"/><stop offset="100%" stop-color="#006B70"/></linearGradient><linearGradient id="R" x1="-.005%" x2="100.01%" y1="50%" y2="50%"><stop offset="0%" stop-color="#00A49A"/><stop offset="3.99%" stop-color="#00A198"/><stop offset="67.1%" stop-color="#007A7B"/><stop offset="100%" stop-color="#006B70"/></linearGradient><linearGradient id="S" x1="-.002%" x2="100.004%" y1="50.007%" y2="50.007%"><stop offset="0%" stop-color="#00A49A"/><stop offset="3.99%" stop-color="#00A198"/><stop offset="67.1%" stop-color="#007A7B"/><stop offset="100%" stop-color="#006B70"/></linearGradient><linearGradient id="T" x1=".014%" x2="100.022%" y1="50.009%" y2="50.009%"><stop offset="0%" stop-color="#5E60FF"/><stop offset="18.14%" stop-color="#5963FF"/><stop offset="40.44%" stop-color="#4A6AFF"/><stop offset="64.91%" stop-color="#3177FF"/><stop offset="90.79%" stop-color="#0E89FF"/><stop offset="100%" stop-color="#0090FF"/></linearGradient><linearGradient id="U" x1="39.545%" x2="62.49%" y1="42.56%" y2="62.912%"><stop offset="0%" stop-color="#5E60FF"/><stop offset="18.14%" stop-color="#5963FF"/><stop offset="40.44%" stop-color="#4A6AFF"/><stop offset="64.91%" stop-color="#3177FF"/><stop offset="90.79%" stop-color="#0E89FF"/><stop offset="100%" stop-color="#0090FF"/></linearGradient><linearGradient id="V" x1="-.179%" x2="99.931%" y1="50.009%" y2="50.009%"><stop offset="0%" stop-color="#88CFDA"/><stop offset=".834%" stop-color="#89CFD9"/><stop offset="47.84%" stop-color="#C8D9BB"/><stop offset="82.18%" stop-color="#F0DFA7"/><stop offset="100%" stop-color="#FFE1A0"/></linearGradient><linearGradient id="W" x1=".018%" x2="99.96%" y1="49.973%" y2="49.973%"><stop offset="0%" stop-color="#88CFDA"/><stop offset=".834%" stop-color="#89CFD9"/><stop offset="47.84%" stop-color="#C8D9BB"/><stop offset="82.18%" stop-color="#F0DFA7"/><stop offset="100%" stop-color="#FFE1A0"/></linearGradient><linearGradient id="X" x1="53.171%" x2="-35.425%" y1="43.658%" y2="95.137%"><stop offset="0%" stop-color="#591DDB"/><stop offset="16.09%" stop-color="#52D"/><stop offset="35.89%" stop-color="#4931E1"/><stop offset="57.62%" stop-color="#364AE9"/><stop offset="80.58%" stop-color="#1B6DF4"/><stop offset="100%" stop-color="#0090FF"/></linearGradient><linearGradient id="Y" x1=".027%" x2="100.026%" y1="49.955%" y2="49.955%"><stop offset="0%" stop-color="#7633FF"/><stop offset="15.85%" stop-color="#7137FF"/><stop offset="35.35%" stop-color="#6243FF"/><stop offset="56.76%" stop-color="#4957FF"/><stop offset="79.37%" stop-color="#2672FF"/><stop offset="100%" stop-color="#0090FF"/></linearGradient><linearGradient id="Z" x1="54.825%" x2="48.24%" y1="1.987%" y2="94.558%"><stop offset="0%" stop-color="#7633FF"/><stop offset="15.85%" stop-color="#7137FF"/><stop offset="35.35%" stop-color="#6243FF"/><stop offset="56.76%" stop-color="#4957FF"/><stop offset="79.37%" stop-color="#2672FF"/><stop offset="100%" stop-color="#0090FF"/></linearGradient><linearGradient id="aa" x1="114.246%" x2="-13.352%" y1="106.427%" y2="23.617%"><stop offset="0%" stop-color="#5E60FF"/><stop offset="18.14%" stop-color="#5963FF"/><stop offset="40.44%" stop-color="#4A6AFF"/><stop offset="64.91%" stop-color="#3177FF"/><stop offset="90.79%" stop-color="#0E89FF"/><stop offset="100%" stop-color="#0090FF"/></linearGradient><linearGradient id="ab" x1="50.005%" x2="50.005%" y1="1.386%" y2="104.271%"><stop offset="0%" stop-color="#311341"/><stop offset="22.99%" stop-color="#3113C2"/><stop offset="34.79%" stop-color="#2F18C5"/><stop offset="49.31%" stop-color="#2927CC"/><stop offset="65.24%" stop-color="#1F40D8"/><stop offset="82.19%" stop-color="#1263E9"/><stop offset="99.78%" stop-color="#008FFF"/><stop offset="100%" stop-color="#0090FF"/></linearGradient><linearGradient id="ac" x1="-.002%" x2="99.981%" y1="50.006%" y2="50.006%"><stop offset="0%" stop-color="#88CFDA"/><stop offset=".834%" stop-color="#89CFD9"/><stop offset="47.84%" stop-color="#C8D9BB"/><stop offset="82.18%" stop-color="#F0DFA7"/><stop offset="100%" stop-color="#FFE1A0"/></linearGradient><linearGradient id="ad" x1="-.013%" x2="99.984%" y1="49.983%" y2="49.983%"><stop offset="0%" stop-color="#88CFDA"/><stop offset=".834%" stop-color="#89CFD9"/><stop offset="47.84%" stop-color="#C8D9BB"/><stop offset="82.18%" stop-color="#F0DFA7"/><stop offset="100%" stop-color="#FFE1A0"/></linearGradient><linearGradient id="ae" x1="109.588%" x2="-6.706%" y1="38.361%" y2="64.156%"><stop offset="0%" stop-color="#88CFDA"/><stop offset=".834%" stop-color="#89CFD9"/><stop offset="47.84%" stop-color="#C8D9BB"/><stop offset="82.18%" stop-color="#F0DFA7"/><stop offset="100%" stop-color="#FFE1A0"/></linearGradient><linearGradient id="af" x1="-.005%" x2="100%" y1="49.999%" y2="49.999%"><stop offset="0%" stop-color="#7633FF"/><stop offset="15.85%" stop-color="#7137FF"/><stop offset="35.35%" stop-color="#6243FF"/><stop offset="56.76%" stop-color="#4957FF"/><stop offset="79.37%" stop-color="#2672FF"/><stop offset="100%" stop-color="#0090FF"/></linearGradient><linearGradient id="ag" x1=".006%" x2="100%" y1="49.993%" y2="49.993%"><stop offset="0%" stop-color="#7633FF"/><stop offset="15.85%" stop-color="#7137FF"/><stop offset="35.35%" stop-color="#6243FF"/><stop offset="56.76%" stop-color="#4957FF"/><stop offset="79.37%" stop-color="#2672FF"/><stop offset="100%" stop-color="#0090FF"/></linearGradient><linearGradient id="ah" x1=".062%" x2="100.02%" y1="49.987%" y2="49.987%"><stop offset="0%" stop-color="#7633FF"/><stop offset="15.85%" stop-color="#7137FF"/><stop offset="35.35%" stop-color="#6243FF"/><stop offset="56.76%" stop-color="#4957FF"/><stop offset="79.37%" stop-color="#2672FF"/><stop offset="100%" stop-color="#0090FF"/></linearGradient><linearGradient id="ai" x1=".021%" x2="100.039%" y1="50.049%" y2="50.049%"><stop offset="0%" stop-color="#7633FF"/><stop offset="15.85%" stop-color="#7137FF"/><stop offset="35.35%" stop-color="#6243FF"/><stop offset="56.76%" stop-color="#4957FF"/><stop offset="79.37%" stop-color="#2672FF"/><stop offset="100%" stop-color="#0090FF"/></linearGradient><linearGradient id="aj" x1="-.003%" x2="99.975%" y1="49.997%" y2="49.997%"><stop offset="0%" stop-color="#7633FF"/><stop offset="15.85%" stop-color="#7137FF"/><stop offset="35.35%" stop-color="#6243FF"/><stop offset="56.76%" stop-color="#4957FF"/><stop offset="79.37%" stop-color="#2672FF"/><stop offset="100%" stop-color="#0090FF"/></linearGradient><linearGradient id="ak" x1="86.175%" x2="7.005%" y1="24.178%" y2="74.258%"><stop offset="0%" stop-color="#88CFDA"/><stop offset=".834%" stop-color="#89CFD9"/><stop offset="47.84%" stop-color="#C8D9BB"/><stop offset="82.18%" stop-color="#F0DFA7"/><stop offset="100%" stop-color="#FFE1A0"/></linearGradient><linearGradient id="al" x1="50.525%" x2="48.012%" y1="2.353%" y2="101.508%"><stop offset="0%" stop-color="#630068"/><stop offset="100%" stop-color="#9009FF"/></linearGradient><linearGradient id="am" x1="102.978%" x2="1.627%" y1="88.019%" y2="14.677%"><stop offset="0%" stop-color="#A1BAFF"/><stop offset="90.97%" stop-color="#FFF"/></linearGradient><linearGradient id="an" x1="-.003%" x2="99.995%" y1="50.053%" y2="50.053%"><stop offset="0%" stop-color="#A1BAFF"/><stop offset="43.32%" stop-color="#FFF"/></linearGradient><linearGradient id="ao" x1=".009%" x2="100.009%" y1="50.01%" y2="50.01%"><stop offset="0%" stop-color="#A1BAFF"/><stop offset="43.32%" stop-color="#FFF"/></linearGradient><linearGradient id="ap" x1=".026%" x2="100.003%" y1="49.999%" y2="49.999%"><stop offset="0%" stop-color="#00A49A"/><stop offset="3.99%" stop-color="#00A198"/><stop offset="67.1%" stop-color="#007A7B"/><stop offset="100%" stop-color="#006B70"/></linearGradient><linearGradient id="aq" x1="-.018%" x2="99.987%" y1="49.999%" y2="49.999%"><stop offset="0%" stop-color="#00A49A"/><stop offset="3.99%" stop-color="#00A198"/><stop offset="67.1%" stop-color="#007A7B"/><stop offset="100%" stop-color="#006B70"/></linearGradient><linearGradient id="ar" x1="-.028%" x2="99.988%" y1="50.012%" y2="50.012%"><stop offset="0%" stop-color="#88CFDA"/><stop offset=".834%" stop-color="#89CFD9"/><stop offset="47.84%" stop-color="#C8D9BB"/><stop offset="82.18%" stop-color="#F0DFA7"/><stop offset="100%" stop-color="#FFE1A0"/></linearGradient><linearGradient id="as" x1=".015%" x2="100.014%" y1="50.009%" y2="50.009%"><stop offset="0%" stop-color="#88CFDA"/><stop offset=".834%" stop-color="#89CFD9"/><stop offset="47.84%" stop-color="#C8D9BB"/><stop offset="82.18%" stop-color="#F0DFA7"/><stop offset="100%" stop-color="#FFE1A0"/></linearGradient></defs><g fill="none" fill-rule="evenodd"><g transform="translate(23)"><path fill="url(#a)" fill-rule="nonzero" d="M15.31,485.77 L738.54,485.77 C738.54,485.77 763.59,280.86 652.44,154.36 C541.3,27.86 380.06,125.85 380.06,125.85 C380.06,125.85 294.58,-40.71 157.77,10.04 C-66.32,93.15 15.31,485.77 15.31,485.77 Z"/><path fill="#FFF" fill-rule="nonzero" d="M503.07,172.77 L596.9,172.77 C602,170.14 605.49,164.8 605.49,158.64 C605.49,150.67 599.64,144.07 592.02,142.93 C592.03,142.67 592.04,142.41 592.04,142.15 C592.04,132.82 584.33,125.26 574.82,125.26 C573.83,125.26 572.85,125.34 571.9,125.5 C567.8,118.38 559.8,113.55 550.6,113.55 C539.88,113.55 530.79,120.11 527.6,129.2 C526.59,129 525.56,128.89 524.5,128.89 C515.36,128.89 507.95,136.75 507.95,146.45 C507.95,147.54 508.04,148.61 508.22,149.64 C501.3,150.08 495.839975,155.38 495.839975,161.85 C495.83,166.62 498.77,170.74 503.07,172.77 Z" opacity=".2"/><circle cx="163.68" cy="84.83" r="32.8" fill="url(#b)" fill-rule="nonzero" opacity=".8"/><path fill="#FFF" fill-rule="nonzero" d="M171.35,121.67 L233.73,121.67 C237.12,119.92 239.44,116.37 239.44,112.28 C239.44,106.98 235.55,102.59 230.48,101.84 C230.49,101.67 230.49,101.5 230.49,101.32 C230.49,95.12 225.36,90.09 219.04,90.09 C218.38,90.09 217.73,90.15 217.1,90.25 C214.37,85.52 209.05,82.31 202.94,82.31 C195.81,82.31 189.77,86.67 187.65,92.71 C186.98,92.58 186.29,92.5 185.59,92.5 C179.51,92.5 174.59,97.73 174.59,104.17 C174.59,104.9 174.65,105.6 174.77,106.29 C170.17,106.58 166.539962,110.11 166.539962,114.41 C166.53,117.58 168.49,120.32 171.35,121.67 Z" opacity=".2"/></g><g transform="translate(49 154)"><g fill-rule="nonzero" transform="translate(0 65)"><path fill="#00759F" d="M152.83,239.76 C152.83,239.76 131.06,258.55 74.88,244.37 C33.93,234.04 0.19,193.6 0.19,193.6 C0.19,193.6 80.57,163.16 152.83,239.76 Z"/><path fill="#741AAC" d="M151,242.28 C151,242.28 107.72,237.24 65.97,160.01 C35.54,103.72 46.08,24.62 46.08,24.62 C46.08,24.62 162.44,83.14 151,242.28 Z"/><path fill="#741AAC" d="M149.35,240.69 C149.35,240.69 114.92,213.98 119.17,126.28 C122.26,62.36 172.22,0.14 172.22,0.14 C172.22,0.14 241.5,110.44 149.35,240.69 Z"/></g><g fill-rule="nonzero" transform="translate(470 65)"><path fill="#00759F" d="M43.72,236.49 C43.72,236.49 65.22,255.05 120.7,241.04 C161.14,230.83 194.46,190.91 194.46,190.91 C194.46,190.91 115.07,160.84 43.72,236.49 Z"/><path fill="#741AAC" d="M46.87,242.28 C46.87,242.28 90.15,237.24 131.9,160.01 C162.33,103.72 151.79,24.62 151.79,24.62 C151.79,24.62 35.44,83.14 46.87,242.28 Z"/><path fill="#741AAC" d="M48.53,240.69 C48.53,240.69 82.96,213.98 78.71,126.28 C75.61,62.36 25.66,0.14 25.66,0.14 C25.66,0.14 -43.62,110.44 48.53,240.69 Z"/></g><path fill="url(#c)" fill-rule="nonzero" d="M494.87,179.51 C494.59,177.12 508.3,129.4 523.56,108.18 C538.82,86.96 555.97,47.73 555.97,47.73 C555.97,47.73 561.74,82.61 545.88,105.52 C530.02,128.43 523.28,139.74 523.28,139.74 C523.28,139.74 534.36,117.4 560.86,115.86 C587.35,114.32 580.54,138.58 580.54,138.58 C580.54,138.58 551.31,96.79 490.62,191.33"/><g fill-rule="nonzero" transform="translate(342 75)"><path fill="url(#d)" d="M116.62,150.79 C116.62,150.79 74.96,160.48 46.76,143.22 C18.56,125.96 0.07,101.46 0.07,101.46 C0.07,101.46 31.58,90.86 51.89,95.06 C72.2,99.26 89.98,122.25 90.03,120.39 C90.08,118.53 68.36,89.14 66.59,69.8 C64.83,50.46 74.01,14.23 74.01,14.23 C74.01,14.23 100.76,34.84 107.42,50.96 C114.09,67.08 119.27,101.87 119.27,101.87 C119.27,101.87 115.73,71.44 128.05,46.19 C140.39,20.95 171.72,0.53 171.72,0.53 C171.72,0.53 183.38,32.03 173.8,62.76 C164.23,93.49 142.06,113.69 142.06,113.69 C142.06,113.69 172.73,91.56 191.65,88.52 C210.58,85.48 236.83,101.92 236.83,101.92 C236.83,101.92 210,131.8 189.24,137.17 C168.48,142.54 147.6,139.79 147.6,139.79 C147.6,139.79 176.39,140.28 193.34,151.75 C210.29,163.21 224.71,186.87 224.71,186.87 C224.71,186.87 184.59,191.63 159.29,178.77 C133.99,165.91 116.62,150.79 116.62,150.79 Z"/><path fill="url(#e)" d="M156.27,140.4 C151.07,139.85 147.6,139.78 147.6,139.78 C147.6,139.78 150.96,140.21 156.27,140.4 Z"/><path fill="url(#f)" d="M80.08,36.49 C80.08,36.49 85.18,103.96 116.94,140.1 C112.51,129.99 100.6,112.67 93.99,88.68 C87.39,64.69 80.08,36.49 80.08,36.49 Z"/><path fill="url(#g)" d="M116.08,142.93 C116.08,142.93 56.37,125.63 33.3,114.89 C16.17,107.41 8.18,103.6 8.18,103.6 C8.18,103.6 21.12,114.15 58.08,128.4 C95.04,142.65 116.08,142.93 116.08,142.93 Z"/><path fill="url(#h)" d="M123.56,144.22 C123.56,144.22 160.18,153.95 190.98,169.72 C205.55,177.3 214.72,182.76 214.72,182.76 C214.72,182.76 189.73,171.56 172.51,164.73 C155.3,157.9 123.56,144.22 123.56,144.22 Z"/></g><path fill="url(#i)" fill-rule="nonzero" d="M181.96,160.03 C182.24,157.64 168.53,109.92 153.27,88.7 C138.01,67.48 120.86,28.25 120.86,28.25 C120.86,28.25 115.09,63.13 130.95,86.04 C146.81,108.95 153.55,120.26 153.55,120.26 C153.55,120.26 142.47,97.92 115.97,96.38 C89.48,94.84 96.29,119.1 96.29,119.1 C96.29,119.1 125.52,77.31 186.21,171.85"/><g transform="translate(390 25)"><path stroke="#000" stroke-width="2.31" d="M83.09,31.78 C83.09,31.78 65.94,57.46 55.21,94.78 C44.47,132.1 48.73,173.99 48.73,173.99"/><path stroke="#000" stroke-width="2.31" d="M76.91 74.58C76.91 74.58 63.13 78.97 58.17 85.22 58.32 78.35 60.41 53.48 60.41 53.48M68.18 114.42C68.18 114.42 54.93 116.66 49.82 121.61 46.63 114.18 43.67 94.81 43.67 94.81M56.09 148.41C56.09 148.41 50.33 151.82 47.9 155.03 43.59 148.55 32.16 136.45 32.16 136.45"/><g fill="#00759F" fill-rule="nonzero"><path d="M80.99 34.17C80.99 34.17 97.86 33.66 105.21 22.02 112.56 10.37 114.03.23 114.03.23 114.03.23 98.43 2.59 89.25 10.78 80.07 18.97 80.99 34.17 80.99 34.17zM76.91 74.58C76.91 74.58 86.12 60.28 98.61 54.38 109.67 49.92 124.81 58.2 124.81 58.2 124.81 58.2 122.98 69.48 106.07 75.85 94.81 80.09 83.36 77.27 76.91 74.58zM44.53 98.2C44.53 98.2 50.43 74.22 39.38 64.76 28.33 55.3 24.02 53.08 24.02 53.08 24.02 53.08 19.63 71.63 24.48 81.66 29.33 91.67 44.53 98.2 44.53 98.2zM64.86 114.98C64.86 114.98 79.45 100.97 90.38 100.959985 101.31 100.95 112.62 105.83 112.62 105.83 112.62 105.83 105.77 119.81 88.82 120.23 71.87 120.65 64.86 114.98 64.86 114.98zM34.11 138.48C34.11 138.48 31.14 119.91 17.23 116.22 5.39 113.3.31 116.03.31 116.03.31 116.03.88 125.11 7.85 132.72 14.83 140.33 34.11 138.48 34.11 138.48zM54.39 149.42C54.39 149.42 57.28 138.64 66.43 135.85 75.88 133.12 83.99 137.99 83.99 137.99 83.99 137.99 82.8 149.25 72.21 151.83 61.61 154.42 54.39 149.42 54.39 149.42zM60.96 55.36C60.96 55.36 67.17 37.73 63.28 29.2 59.39 20.67 50.84 16.88 50.84 16.88 50.84 16.88 44.2 26.73 46.6 36.22 49 45.69 60.96 55.36 60.96 55.36z"/></g></g><g transform="translate(140 36)"><path stroke="#000" stroke-width="2.31" d="M39.84,24.64 C39.84,24.64 63.91,43.98 85.37,76.35 C106.83,108.72 115.36,149.95 115.36,149.95"/><path stroke="#000" stroke-width="2.31" d="M58.6 63.6C58.6 63.6 73.06 63.64 79.67 68.11 77.46 61.6 67.99 38.51 67.99 38.51M78.9 98.98C78.9 98.98 92.22 97.13 98.57 100.32 99.38 92.28 96.38 72.91 96.38 72.91M100.64 127.76C100.64 127.76 107.15 129.28 110.45 131.61 112.62 124.13 119.88 109.16 119.88 109.16"/><g fill="#00759F" fill-rule="nonzero"><path d="M42.55 26.29C42.55 26.29 26.31 30.88 15.8 21.98 5.29 13.08.84 3.85.84 3.85.84 3.85 16.43 1.41 27.65 6.46 38.86 11.52 42.55 26.29 42.55 26.29zM58.6 63.6C58.6 63.6 45.51 52.73 31.83 50.86 19.95 49.93 7.99 62.38 7.99 62.38 7.99 62.38 13.13 72.58 31.17 73.58 43.18 74.24 53.25 68.11 58.6 63.6zM96.57 76.4C96.57 76.4 83.74 55.3 91.43 42.96 99.12 30.62 102.57 27.2 102.57 27.2 102.57 27.2 112.33 43.58 110.73 54.59 109.11 65.6 96.57 76.4 96.57 76.4zM82.24 98.51C82.24 98.51 64.11 89.54 53.69 92.81 43.26 96.08 33.94 104.14 33.94 104.14 33.94 104.14 44.67 115.42 60.96 110.72 77.25 106.02 82.24 98.51 82.24 98.51zM118.62 111.68C118.62 111.68 115.87 93.08 128.03 85.38 138.45 79.04 144.11 80.12 144.11 80.12 144.11 80.12 146.3 88.95 141.94 98.31 137.57 107.65 118.62 111.68 118.62 111.68zM102.58 128.21C102.58 128.21 96.58 118.8 87.02 118.88 77.18 119.12 70.92 126.2 70.92 126.2 70.92 126.2 75.44 136.58 86.31 135.86 97.18 135.15 102.58 128.21 102.58 128.21zM68.03 40.47C68.03 40.47 56.81 25.53 57.96 16.22 59.11 6.91 66.12.73 66.12.73 66.12.73 75.41 8.13 75.97 17.9 76.53 27.66 68.03 40.47 68.03 40.47z"/></g></g><g fill-rule="nonzero" transform="translate(312 150)"><path fill="url(#j)" d="M126.47,160.11 C126.47,160.11 90.47,183.21 58.11,176.39 C25.75,169.58 0.12,152.7 0.12,152.7 C0.12,152.7 26.25,132.15 46.8,129.3 C67.34,126.45 91.8,142.14 91.22,140.38 C90.64,138.62 60.33,118.2 52.18,100.57 C44.04,82.94 40.55,45.73 40.55,45.73 C40.55,45.73 72.66,56.18 84.34,69.13 C96.02,82.08 112.57,113.12 112.57,113.12 C112.57,113.12 99.03,85.64 102.18,57.72 C105.34,29.81 128.02,0.07 128.02,0.07 C128.02,0.07 149.56,25.84 150.84,58 C152.13,90.16 138.01,116.62 138.01,116.62 C138.01,116.62 159.49,85.49 176.3,76.29 C193.12,67.09 223.36,73.77 223.36,73.77 C223.36,73.77 208.08,110.91 190.31,122.92 C172.55,134.94 151.96,139.34 151.96,139.34 C151.96,139.34 179.25,130.15 199.07,135.27 C218.88,140.39 240.4,157.84 240.4,157.84 C240.4,157.84 204.19,175.77 176.05,172.14 C147.91,168.52 126.47,160.11 126.47,160.11 Z"/><path fill="url(#k)" d="M160.35,137.03 C155.27,138.25 151.97,139.35 151.97,139.35 C151.97,139.35 155.28,138.63 160.35,137.03 Z"/><path fill="url(#l)" d="M53.74,64.66 C53.74,64.66 81.16,126.52 123.2,149.92 C115.64,141.88 98.6,129.55 84.34,109.17 C70.08,88.78 53.74,64.66 53.74,64.66 Z"/><path fill="url(#m)" d="M123.33,152.88 C123.33,152.88 61.27,156.6 35.94,154.21 C17.29,152.91 8.49,151.99 8.49,151.99 C8.49,151.99 24.22,157.59 63.82,158.63 C103.42,159.67 123.33,152.88 123.33,152.88 Z"/></g><g fill-rule="nonzero" transform="translate(95 86)"><path fill="url(#n)" d="M132.06,137.07 C132.06,137.07 171.68,120.97 184.77,90.6 C197.86,60.23 198.84,29.56 198.84,29.56 C198.84,29.56 166.98,39.06 152.81,54.21 C138.63,69.35 137.36,98.38 136.25,96.9 C135.14,95.41 135.94,58.88 126.23,42.05 C116.52,25.23 88.13,0.93 88.13,0.93 C88.13,0.93 78.16,33.19 82.01,50.2 C85.86,67.21 101.68,98.63 101.68,98.63 C101.68,98.63 87.03,71.72 62.4,58.2 C37.77,44.69 0.39,46.08 0.39,46.08 C0.39,46.08 9.03,78.54 34.57,98.13 C60.1,117.72 89.87,121.45 89.87,121.45 C89.87,121.45 52.05,121.05 34.84,129.48 C17.63,137.91 5.65,166.48 5.65,166.48 C5.65,166.48 44.81,175.4 64.87,167.81 C84.93,160.23 100.4,145.94 100.4,145.94 C100.4,145.94 77.16,162.94 69.92,182.09 C62.68,201.23 64.54,228.87 64.54,228.87 C64.54,228.87 100.06,209.62 113.33,184.53 C126.58,159.44 132.06,137.07 132.06,137.07 Z"/><path fill="url(#o)" d="M93.67,151.45 C97.6,148.01 100.39,145.94 100.39,145.94 C100.39,145.94 97.91,148.23 93.67,151.45 Z"/></g><g fill-rule="nonzero" transform="translate(147 149)"><path fill="url(#p)" d="M114.04,159.55 C114.04,159.55 151.96,179.33 183.58,169.64 C215.2,159.95 239.21,140.84 239.21,140.84 C239.21,140.84 211.34,122.71 190.62,121.72 C169.9,120.72 146.95,138.55 147.37,136.74 C147.79,134.93 176.15,111.89 182.68,93.59 C189.21,75.3 189.35,37.92 189.35,37.92 C189.35,37.92 158.31,51.21 147.84,65.16 C137.36,79.11 123.67,111.51 123.67,111.51 C123.67,111.51 134.69,82.92 129.05,55.4 C123.4,27.88 98.14,0.29 98.14,0.29 C98.14,0.29 79,27.89 80.6,60.03 C82.2,92.17 98.63,117.27 98.63,117.27 C98.63,117.27 74.45,88.19 56.88,80.53 C39.31,72.87 9.78,82.24 9.78,82.24 C9.78,82.24 28.33,117.86 47.1,128.23 C65.87,138.61 86.77,141.15 86.77,141.15 C86.77,141.15 58.76,134.45 39.49,141.32 C20.22,148.2 0.35,167.51 0.35,167.51 C0.35,167.51 38.02,182.12 65.73,175.98 C93.45,169.86 114.04,159.55 114.04,159.55 Z"/><path fill="#00759F" d="M98.14,0.3 C98.14,0.3 123.4,27.89 129.05,55.41 C134.69,82.93 123.67,111.52 123.67,111.52 C123.67,111.52 137.36,79.12 147.84,65.17 C158.31,51.22 189.35,37.93 189.35,37.93 C189.35,37.93 189.21,75.3 182.68,93.6 C176.15,111.89 147.79,134.94 147.37,136.75 C146.95,138.56 169.91,120.73 190.62,121.73 C211.34,122.73 239.21,140.85 239.21,140.85 C239.21,140.85 215.19,159.96 183.58,169.65 C151.96,179.34 114.04,159.56 114.04,159.56 C114.04,159.56 113.68,159.74 113.02,160.05 C116.24,89.88 98.14,0.3 98.14,0.3 Z" opacity=".3"/><path fill="url(#q)" d="M78.23,139.6 C83.4,140.36 86.78,141.16 86.78,141.16 C86.78,141.16 83.42,140.74 78.23,139.6 Z"/><path fill="url(#r)" d="M177.92,57.98 C177.92,57.98 156.15,122.05 116.38,149.12 C123.19,140.44 139.05,126.63 151.43,105.05 C163.82,83.46 177.92,57.98 177.92,57.98 Z"/><path fill="url(#s)" d="M116.52,152.07 C116.52,152.07 178.66,150.21 203.68,145.56 C222.14,142.59 230.82,140.89 230.82,140.89 C230.82,140.89 215.66,147.88 176.31,152.46 C136.97,157.05 116.52,152.07 116.52,152.07 Z"/><path fill="url(#t)" d="M110.75,150.67 C110.75,150.67 87.3,126.34 65.48,110.41 C43.67,94.48 18.81,85.68 18.81,85.68 C18.81,85.68 51.47,105.24 63.71,114.04 C75.95,122.83 110.75,150.67 110.75,150.67 Z"/></g><g fill-rule="nonzero" transform="translate(203)"><path fill="#000" d="M52.19,7.22 C52.19,7.22 56.42,28.13 34.82,39.57 C27.59,42.07 14.13,42.31 6.64,35.16 C17.62,40.5 27.41,41.39 34.64,38.57 C38.74,35.15 50.54,30.67 52.19,7.22 Z"/><path fill="#000" d="M40.62,9.38 C40.62,9.38 45.34,27.28 34.54,39.12 C23.82,36.75 14.93,28.56 12.34,22.74 C15.81,26.74 25.3,36.18 34.04,38.3 C38.13,31.4 42.18,22.7 40.62,9.38 Z"/><path fill="#000" d="M33.29,19.25 C33.29,19.25 38.75,31.67 34.91,38.68 C32.87,37.49 23.01,28.56 20.22,14.93 C24.31,22.54 25.75,29.34 34.3,36.7 C35.39,32.04 33.65,21.11 33.29,19.25 Z"/><path fill="url(#u)" d="M52.45,11.77 C52.45,11.77 55.58,9.93 55.93,5.22 C56.28,0.51 53.49,-1.17 52.02,0.84 C51.39,-0.58 50.75,0.12 50.74,1.05 C49.86,0.16 48.12,0.11 47.9,2.17 C47.68,4.21 49.47,11.34 52.45,11.77 Z"/><path fill="url(#v)" d="M40.92,13.05 C40.92,13.05 44.5,10.8 42.86,5.54 C41.84,2.83 40.45,2.62 40.13,3.34 C39.73,3.02 38.07,2.77 37.98,4.2 C37.15,3.76 35.71,4.94 36.1,6.62 C36.47,8.28 37.4,12.23 40.92,13.05 Z"/><path fill="url(#w)" d="M34.31,23.54 C34.31,23.54 37.15,21.65 35.5,17.14 C34.44,14.08 32.95,15.11 32.93,15.75 C32.36,14.89 31.39,15.05 31.28,15.82 C30.45,15.42 29.41,16.61 29.8,18.27 C30.17,19.93 31.41,23.32 34.31,23.54 Z"/><path fill="url(#x)" d="M21.83,19.18 C21.83,19.18 24.57,17.87 23.81,13.65 C23.06,9.44 20.74,6.77 19.88,8.46 C19.04,7.82 17.61,6.59 16.33,9.02 C14.79,9.38 15.04,11.77 15.72,13.52 C16.4,15.28 18.9,19.3 21.83,19.18 Z"/><path fill="url(#y)" d="M11.65,38.13 C11.65,38.13 12.46,35.21 8.8,33 C5.13,30.79 1.6,30.78 2.31,32.54 C1.27,32.75 -0.59,33.02 0.39,35.59 C-0.35,36.99 1.61,38.37 3.38,39.01 C5.15,39.66 9.83,40.42 11.65,38.13 Z"/><path fill="url(#z)" d="M14.68,25.57 C14.68,25.57 16,24.23 14.36,21.35 C13.3,19.19 9.98,15.55 9.46,18.34 C7.92,18.37 6.16,17.96 6.89,21.09 C5.49,21.91 6.73,23.39 8.16,24.83 C9.6,26.27 13.3,26.76 14.68,25.57 Z"/><path fill="#000" d="M35.51,37.35 C35.51,37.35 35.57,37.46 35.68,37.68 C37.58,41.34 54.53,74.6 47.72,84.91 C48.39,79.66 47.57,73.09 42.91,59.85 C38.26,46.61 34.03,38.3 34.03,38.3 L35.57,37.47"/></g><g fill-rule="nonzero" transform="translate(400 7)"><path fill="#000" d="M4.76,7.44 C4.76,7.44 0.53,28.35 22.13,39.79 C29.36,42.29 42.82,42.53 50.31,35.38 C39.33,40.72 29.54,41.61 22.31,38.79 C18.21,35.37 6.41,30.89 4.76,7.44 Z"/><path fill="#000" d="M16.33,9.6 C16.33,9.6 11.61,27.49 22.41,39.34 C33.13,36.97 42.02,28.78 44.61,22.96 C41.14,26.96 31.65,36.4 22.91,38.52 C18.82,31.62 14.76,22.92 16.33,9.6 Z"/><path fill="#000" d="M23.65,19.47 C23.65,19.47 18.19,31.89 22.03,38.9 C24.07,37.71 33.93,28.78 36.72,15.15 C32.63,22.76 31.19,29.56 22.64,36.92 C21.55,32.26 23.29,21.33 23.65,19.47 Z"/><path fill="url(#A)" d="M4.5,11.99 C4.5,11.99 1.37,10.15 1.02,5.44 C0.67,0.73 3.46,-0.95 4.93,1.06 C5.56,-0.36 6.2,0.34 6.21,1.27 C7.09,0.38 8.83,0.33 9.05,2.39 C9.27,4.43 7.48,11.56 4.5,11.99 Z"/><path fill="url(#B)" d="M16.03,13.26 C16.03,13.26 12.45,11.01 14.09,5.75 C15.11,3.04 16.5,2.83 16.82,3.55 C17.22,3.23 18.89,2.98 18.97,4.41 C19.8,3.97 21.24,5.15 20.85,6.83 C20.47,8.5 19.55,12.45 16.03,13.26 Z"/><path fill="url(#C)" d="M22.64,23.76 C22.64,23.76 19.8,21.87 21.45,17.36 C22.51,14.3 24,15.33 24.02,15.97 C24.59,15.11 25.56,15.27 25.67,16.04 C26.5,15.64 27.54,16.83 27.15,18.49 C26.77,20.15 25.54,23.54 22.64,23.76 Z"/><path fill="url(#D)" d="M35.12,19.39 C35.12,19.39 32.38,18.08 33.14,13.86 C33.89,9.65 36.21,6.98 37.07,8.67 C37.91,8.03 39.34,6.8 40.62,9.23 C42.16,9.59 41.91,11.98 41.23,13.73 C40.55,15.5 38.05,19.52 35.12,19.39 Z"/><path fill="url(#E)" d="M45.29,38.35 C45.29,38.35 44.48,35.43 48.14,33.22 C51.81,31.01 55.34,31 54.63,32.76 C55.67,32.97 57.53,33.24 56.55,35.81 C57.29,37.21 55.33,38.59 53.56,39.23 C51.79,39.87 47.12,40.64 45.29,38.35 Z"/><path fill="url(#F)" d="M42.26,25.78 C42.26,25.78 40.94,24.44 42.58,21.56 C43.64,19.4 46.96,15.76 47.48,18.55 C49.02,18.58 50.78,18.17 50.05,21.3 C51.45,22.12 50.2,23.6 48.78,25.04 C47.35,26.49 43.65,26.98 42.26,25.78 Z"/><path fill="#000" d="M21.44,37.57 C21.44,37.57 21.38,37.68 21.27,37.9 C19.37,41.56 2.42,74.82 9.23,85.13 C8.56,79.88 9.38,73.31 14.04,60.07 C18.69,46.83 22.92,38.52 22.92,38.52 L21.38,37.69"/></g></g><g transform="translate(0 476)"><path fill="url(#G)" d="M38.31,9.77 C38.31,9.77 -9.81,21.58 2.02,67.72 C8.2,91.83 53.45,97.41 116.9,97.41 C118.39,97.41 119.86,97.4 121.34,97.39 C122.7,97.85 124.06,98.29 125.46,98.7 C200.03,120.77 301.82,98.74 393.89,71.03 C465.97,49.34 629.17,53.23 680.11,53.23 C856.27,53.23 761.55,9.77 761.55,9.77 L38.31,9.77 L38.31,9.77 Z"/><polygon fill="#000640" fill-rule="nonzero" points="620.49 32.14 183.48 32.14 183.48 .02 588.37 .02" opacity=".5"/><path fill="#000640" d="M328.47,68.22 C328.47,77.9 257.37,85.74 169.66,85.74 C81.95,85.74 10.85,77.9 10.85,68.22 C10.85,58.55 81.95,50.7 169.66,50.7 C257.36,50.7 328.47,58.54 328.47,68.22 Z" opacity=".5"/></g><g transform="translate(186 216)"><path fill="url(#H)" fill-rule="nonzero" d="M414.86,250.99 C414.86,256.54 410.36,261.05 404.8,261.05 L10.33,261.05 C4.78,261.05 0.27,256.55 0.27,250.99 L0.27,10.53 C0.27,4.98 4.77,0.47 10.33,0.47 L404.8,0.47 C410.35,0.47 414.86,4.97 414.86,10.53 L414.86,250.99 L414.86,250.99 Z"/><rect width="414.59" height="31.87" x=".27" y="13.3" fill="url(#I)"/><path fill="#FFF" fill-rule="nonzero" d="M361.66,29.52 C361.66,33.78 358.2,37.24 353.94,37.24 L78.03,37.24 C73.77,37.24 70.31,33.78 70.31,29.52 L70.31,29.52 C70.31,25.26 73.77,21.8 78.03,21.8 L353.94,21.8 C358.2,21.8 361.66,25.25 361.66,29.52 L361.66,29.52 Z"/></g><g fill-rule="nonzero" transform="translate(261 172)"><path fill="url(#J)" d="M106.81,211.14 C106.81,212.76 105.24,214.08 103.29,214.08 L103.29,214.08 C101.35,214.08 99.77,212.77 99.77,211.14 L99.77,80.5 C99.77,78.88 101.34,77.56 103.29,77.56 L103.29,77.56 C105.23,77.56 106.81,78.87 106.81,80.5 L106.81,211.14 Z"/><path fill="url(#K)" d="M104.5,218.77 C104.5,218.77 100.87,180.91 64.04,167.42 C27.21,153.93 0.24,191.8 0.24,191.8 C0.24,191.8 22.02,203.21 38.62,204.77 C55.23,206.32 95.69,210.99 104.5,218.77 Z"/><path fill="url(#L)" d="M102.68,218.77 C102.68,218.77 106.31,180.91 143.14,167.42 C179.97,153.93 206.94,191.8 206.94,191.8 C206.94,191.8 185.16,203.21 168.56,204.77 C151.95,206.32 111.5,210.99 102.68,218.77 Z"/><g transform="translate(41 208)"><path fill="url(#M)" d="M10.95,32.55 L25.87,116.17 C25.87,116.17 40.1,123.46 64.04,123.46 C93.88,123.46 103.94,116.17 103.94,116.17 L121.29,32.9 L10.95,32.55 Z"/><path fill="url(#N)" d="M130.65,24.83 C130.65,29.28 127.04,32.9 122.58,32.9 L8.26,32.9 C3.8,32.9 0.19,29.29 0.19,24.83 L0.19,8.7 C0.19,4.24 3.8,0.63 8.26,0.63 L122.59,0.63 C127.05,0.63 130.66,4.24 130.66,8.7 L130.66,24.83 L130.65,24.83 Z"/></g><g transform="translate(61)"><circle cx="42.3" cy="41.82" r="41.6" fill="#A600A9"/><path fill="url(#O)" d="M17.11,46.14 L25.59,38.78 L33.27,47.42 L59.82,19.59 L67.5,27.27 C67.5,27.27 32.64,64.69 32.8,64.05 C32.94,63.41 17.11,46.14 17.11,46.14 Z"/></g><path fill="url(#P)" d="M110.35,175.38 C110.35,175.38 103.95,136.09 131.96,121.7 C159.98,107.31 179.46,121.8 179.46,121.8 C179.46,121.8 161.57,135.74 148.65,154.03 C139.43,167.09 120.52,172.26 110.35,175.38 Z"/><path fill="url(#Q)" d="M96.21,175.38 C96.21,175.38 102.61,136.09 74.6,121.7 C46.58,107.31 27.1,121.8 27.1,121.8 C27.1,121.8 44.99,135.74 57.91,154.03 C67.12,167.09 86.04,172.26 96.21,175.38 Z"/><path fill="url(#R)" d="M96.5,123.9 C96.5,123.9 101.11,95.58 80.93,85.21 C60.73,74.84 46.7,85.29 46.7,85.29 C46.7,85.29 59.59,95.34 68.9,108.52 C75.54,117.92 89.17,121.65 96.5,123.9 Z"/><path fill="url(#S)" d="M109.81,124.99 C109.81,124.99 104.89,94.8 126.41,83.75 C147.94,72.69 162.9,83.83 162.9,83.83 C162.9,83.83 149.16,94.54 139.23,108.59 C132.16,118.62 117.62,122.59 109.81,124.99 Z"/></g><g fill-rule="nonzero" transform="translate(79 190)"><g transform="translate(193 69)"><path fill="url(#T)" d="M9.77,11.53 C9.77,11.53 9.05,20.18 12.89,24.02 C16.73,27.86 23.23,20.18 9.77,11.53 Z"/><path fill="#FFF" d="M11.57 33.83C11.57 33.83 7.73 41.61 9.89 46.6 12.06 51.58 20.91 46.81 11.57 33.83zM28.65 46.81C28.65 46.81 23.12 58 26.24 65.17 29.35 72.34 42.09 65.48 28.65 46.81z"/><path fill="url(#U)" d="M2.72,0.97 C2.72,0.97 -0.12,6.73 1.48,10.42 C3.08,14.1 9.63,10.57 2.72,0.97 Z"/></g><path fill="url(#V)" d="M97.06,65.51 L104.39,61.79 L102.47,53.26 C102.47,53.26 101.75,49.54 101.75,48.57 C101.75,47.6 100.07,45.69 99.35,46.05 C98.63,46.41 99.35,49.53 98.87,50.98 C98.39,52.42 95.03,55.91 95.03,55.91"/><g fill="#000" transform="translate(101 28)"><g transform="translate(9)"><path d="M46.83,17.09 C46.5,16.84 9.97,9.08 9.97,9.08 L0.48,48.22 C0.48,48.22 -0.04,53.06 4.96,54.75 C9.96,56.44 31.2,60.12 31.2,60.12 C31.2,60.12 36.41,60.71 38.7,54.5 C41.01,48.28 46.83,17.09 46.83,17.09 Z"/><path d="M41.6,43.08 L75.63,28.07 L77.91,34.19 L38.71,54.5 C38.71,54.5 41.58,44.69 41.6,43.08 Z"/><path d="M75.63 28.07L77.51 23.58C77.51 23.58 80.32 25.81 81.43 29.06 83.32 34.61 81.62 37.73 81.62 37.73L77.91 34.19 75.63 28.07zM28.65 12.75L31.24.89C31.24.89 33.12 5.04 33.83 8.4 34.53 11.76 34.16 14.25 34.16 14.25L28.65 12.75z"/><path d="M31.24,0.9 C31.24,0.9 23.44,0.96 18.05,2.9 C12.66,4.84 9.97,9.08 9.97,9.08 L28.65,12.75 L31.24,0.9 Z"/></g><path d="M18.97,9.08 C18.97,9.08 8.09,6.79 3.34,13.62 C-1.42,20.45 -0.24,34.12 2.16,37.3 C4.55,40.49 10.86,45.4 10.86,45.4 L12.12,38.66 C12.12,38.66 5.29,33.9 4.58,31.03 C3.87,28.16 4.85,18.88 7.27,15.97 C9.68,13.06 17.86,14.58 17.86,14.58 L18.97,9.08 Z"/></g><g fill="#000" transform="translate(52 223)"><polygon points="11.04 7.35 73.73 7.35 71.02 1.34 8.57 1.34"/><polygon points="128.66 137.31 121.23 137.31 67.9 .48 76.03 .48"/><polygon points="61.65 137.31 54.23 137.31 .44 .48 8.57 .48"/><polygon points="50.64 109.4 113.33 109.4 110.62 103.39 48.16 103.39"/><polygon points="37.44 75.23 100.13 75.23 97.42 69.22 34.96 69.22"/><polygon points="24.12 41.76 86.81 41.76 84.1 35.75 21.65 35.75"/></g><g fill="#0000B8" transform="translate(0 223)"><polygon points="119.04 7.35 56.35 7.35 59.06 1.34 121.52 1.34"/><polygon points=".14 141.22 7.57 141.22 62.19 .48 54.06 .48"/><polygon points="66.96 141.22 74.38 141.22 129.65 .48 121.52 .48"/><polygon points="79.45 109.4 16.76 109.4 19.47 103.39 81.92 103.39"/><polygon points="92.65 75.23 29.96 75.23 32.67 69.22 95.12 69.22"/><polygon points="105.96 41.76 43.27 41.76 45.98 35.75 108.44 35.75"/></g><g transform="translate(44)"><path fill="url(#W)" d="M79.6,69.72 C79.6,69.72 84.1,66.66 85.19,65.58 C86.27,64.5 91.68,58.91 92.4,60.71 C93.12,62.51 90.6,66.3 90.6,66.3 C90.6,66.3 96.19,64.86 98.53,64.14 C100.87,63.42 103.4,65.04 103.4,67.38 C103.4,69.72 97.99,74.05 94.03,75.13 C90.07,76.21 80.88,76.93 80.88,76.93"/><path fill="url(#X)" d="M12.57,40.89 C12.57,40.89 -3.65,83.6 1.94,89.36 C7.53,95.13 47.89,82.15 47.89,82.15 L55.28,78.01 L47.53,65.94 L12.57,40.89 Z"/><path fill="url(#Y)" d="M23.66,37.74 L25.96,32.97 C25.96,32.97 30.38,34.38 33.91,34.56 C37.45,34.74 38.86,35.44 38.86,35.44 L41.69,40.04 C41.69,40.04 30.74,42.16 23.66,37.74 Z"/><path fill="url(#Z)" d="M23.66,37.74 C23.66,37.74 17.83,37.21 14.82,38.98 C11.82,40.75 8.63,51.88 7.57,59.48 C6.51,67.08 4.74,96.6 4.57,102.61 C4.39,108.62 4.57,122.23 4.57,122.23 C4.57,122.23 20.48,125.59 31.44,125.23 C42.4,124.88 51.06,116.22 51.06,116.22 C51.06,116.22 50.18,103.67 48.76,99.6 C47.35,95.53 45.05,88.11 46.46,81.92 C47.87,75.73 52.12,57.88 51.06,51.16 C50,44.44 51.06,43.21 47.35,41.97 C43.64,40.73 41.69,40.03 41.69,40.03 C41.69,40.03 32.33,42.16 23.66,37.74 Z"/><path fill="url(#aa)" d="M36.96,47.82 C36.96,47.82 34.85,55 36.63,65.04 C38.41,75.08 41.54,85.58 43.18,87.71 C44.82,89.84 49.45,91.61 52.78,90.75 C56.11,89.89 81.97,77.53 81.97,77.53 C81.97,77.53 83.12,75.2 82.07,72.3 C81.02,69.4 79.08,68.55 79.08,68.55 L56.47,75.26 C56.47,75.26 53.74,52.97 52.52,48.71 C51.3,44.45 49.04,42.56 46.84,41.98 C44.65,41.41 38.72,43.2 36.96,47.82 Z"/><path fill="url(#ab)" d="M50.2,117.02 C47.75,119.17 40.36,124.95 31.44,125.24 C20.48,125.59 4.57,122.24 4.57,122.24 C4.57,122.24 6.51,135.14 8.11,140.27 C9.7,145.4 10.76,151.94 10.94,154.06 C11.12,156.18 7.94,191.71 7.4,201.79 C6.87,211.87 8.23,244.51 8.23,244.51 L18.13,244.51 C18.13,244.51 21.72,205.15 24.91,183.41 C28.09,161.67 29.68,150 29.68,150 L31.98,153.89 C31.98,153.89 33.04,192.07 33.92,209.04 C34.8,226.01 36.69,244.69 36.69,244.69 L47.12,245.22 C47.12,245.22 51.24,180.58 51.77,162.02 C52.27,144.5 50.41,119.78 50.2,117.02 Z"/><path fill="#4B00A9" d="M8.82 244.61C8.82 244.61 7.29 253.21 7.29 254.39 7.29 255.57 7.76 259.58 7.76 259.58 7.76 259.58 14.95 259.82 19.9 259.7 24.85 259.58 30.62 258.4 30.62 258.4 30.62 258.4 31.56 255.22 30.27 253.45 28.97 251.68 23.91 251.33 22.37 249.56 20.84 247.79 18.13 244.49 18.13 244.49 18.13 244.49 10.23 245.08 8.82 244.61zM37.45 244.61C37.45 244.61 35.92 253.21 35.92 254.39 35.92 255.57 36.39 259.58 36.39 259.58 36.39 259.58 43.58 259.82 48.53 259.7 53.48 259.58 59.25 258.4 59.25 258.4 59.25 258.4 60.19 255.22 58.9 253.45 57.6 251.68 52.54 251.33 51 249.56 49.47 247.79 46.76 244.49 46.76 244.49 46.76 244.49 38.87 245.08 37.45 244.61z"/><path fill="#000" d="M26.02,32.38 C26.02,32.38 24.65,14.64 26.14,9.99 C27.91,4.45 31.44,0.56 36.98,0.33 C42.52,0.09 51.71,0.57 54.18,3.63 C56.65,6.69 55.36,11.17 55.12,12.59 C54.88,14 52.53,15.54 52.53,15.54 C52.53,15.54 48.99,14.6 47.93,15.42 C46.87,16.24 45.22,19.9 45.22,19.9 C45.22,19.9 44.02,16.41 42.51,17.07 C38.74,18.72 39.92,23.67 40.51,24.73 C41.26,26.08 40.51,25.08 40.51,25.08 L32.14,34.15 C32.15,34.14 28.73,34.5 26.02,32.38 Z"/><path fill="url(#ac)" d="M47.94,15.41 C46.88,16.23 45.23,19.89 45.23,19.89 C45.23,19.89 44.03,16.4 42.52,17.06 C38.75,18.71 39.93,23.66 40.52,24.72 C41.27,26.07 40.52,25.07 40.52,25.07 L32.15,34.14 L38.87,35.44 L39.11,33.79 C39.11,33.79 41.7,34.73 43.23,34.73 C44.76,34.73 46.53,31.55 48.53,28.13 C50.53,24.71 52.54,15.52 52.54,15.52 C52.54,15.52 49,14.58 47.94,15.41 Z"/></g><path fill="url(#ad)" d="M106.91,50.5 C106.91,50.5 101.98,51.82 101.02,53.02 C100.06,54.22 99.58,57.46 100.78,59.27 C101.98,61.07 101.98,63.23 104.38,62.63 C106.78,62.03 109.07,60.23 109.07,57.34 C109.07,54.45 108.35,51.22 106.91,50.5 Z"/></g><g fill-rule="nonzero" transform="translate(376 165)"><path fill="url(#ae)" d="M185.16,85.12 L164.73,92.22 C164.73,92.22 163.39,87.78 161.29,87 C159.19,86.23 155.1,86.01 155.1,86.01 C155.1,86.01 155.32,82.36 159.63,82.03 C163.94,81.7 167.58,83.25 167.58,83.25 C167.58,83.25 178.3,78.72 181.17,77.17 C184.04,75.62 184.59,74.74 184.59,74.74 L185.16,85.12 Z"/><g transform="translate(0 83)"><path fill="#68C1FF" d="M89.95,60.39 C89.95,60.39 69.21,60.58 47.78,77.33 C16.43,101.84 0.57,138.24 0.57,138.24 L40.93,138.6 C40.93,138.6 55.71,84.18 95.52,67.62" opacity=".7"/><g transform="translate(89 4)"><path fill="url(#af)" d="M23.16,30.64 C23.3,30.23 50.09,2.06 50.09,2.06 L81.28,30.09 C81.28,30.09 84.58,33.94 81.28,38.33 C77.98,42.73 61.91,58.39 61.91,58.39 C61.91,58.39 57.79,61.96 52.15,57.98 C46.52,54 23.16,30.64 23.16,30.64 Z"/><path fill="url(#ag)" d="M42.94,49.87 L4.88,57.02 L6.53,63.62 L52.15,57.99 C52.15,57.98 43.91,51.25 42.94,49.87 Z"/><path fill="url(#ah)" d="M4.88,57.02 L0.62,54.27 C0.62,54.27 -0.48,57.84 0.48,61.28 C2.12,67.16 5.43,68.84 5.43,68.84 L6.53,63.62 L4.88,57.02 Z"/><path fill="#000" d="M36.21,16.21 L27,7.55 C27,7.55 27.82,12.22 29.2,15.52 C30.57,18.82 32.36,20.74 32.36,20.74 L36.21,16.21 Z"/><path fill="url(#ai)" d="M27,7.55 C27,7.55 33.73,3.02 39.5,1.5 C45.27,-0.01 50.08,2.05 50.08,2.05 L36.2,16.2 L27,7.55 Z"/></g><path fill="url(#aj)" d="M139.09,6.06 C139.09,6.06 147.08,-2.31 155.19,0.75 C163.3,3.81 170.33,16.25 170.15,20.39 C169.97,24.53 167.45,32.46 167.45,32.46 L162.4,27.41 C162.4,27.41 165.46,19.3 164.38,16.42 C163.3,13.54 156.99,6.15 153.21,5.07 C149.43,3.99 143.3,10.12 143.3,10.12 L139.09,6.06 Z"/></g><path fill="url(#ak)" d="M163.05,94.1 C163.42,93.95 165.92,91.78 165.92,90.01 C165.92,88.24 165.92,87.25 162.83,86.92 C159.74,86.59 154.77,88.8 154.77,88.8 C154.77,88.8 154.66,89.68 155.87,90.57 C157.08,91.45 159.63,95.53 163.05,94.1 Z"/><g transform="translate(136)"><path fill="url(#al)" d="M100.42,79.49 L65.73,89.21 C65.73,89.21 63.3,100.99 62.12,112.92 C60.94,124.85 62.27,137.67 63.15,142.82 C64.03,147.98 65.51,154.31 65.51,154.31 C65.51,154.31 65.29,160.24 66.62,165.43 C67.95,170.62 69.05,177.8 69.05,183.77 C69.05,189.74 65.07,211.72 65.07,211.72 L78,214.7 C78,214.7 85.73,194.7 86.62,185.2 C87.5,175.7 83.97,165.09 84.74,161.67 C85.51,158.25 99.65,128.53 103.08,119.8 C106.5,111.07 108.93,101.13 105.62,91.52 C102.3,81.92 100.42,79.49 100.42,79.49 Z"/><path fill="#000" d="M78,214.71 C78,214.71 78.99,220.67 79.33,224.43 C79.66,228.19 79.99,231.06 79.99,231.06 C79.99,231.06 72.15,234.82 59.11,234.93 C46.07,235.04 45.85,233.72 45.85,233.72 C45.85,233.72 43.97,229.74 46.29,228.64 C48.61,227.54 54.35,225.44 57.34,223.67 C60.32,221.9 66.18,216.71 67.06,215.72 C67.94,214.73 69.27,212.74 69.27,212.74 L78,214.71 Z"/><path fill="url(#am)" d="M67.06,215.7 C67.94,214.71 69.27,212.72 69.27,212.72 L78,214.71 C78,214.71 78.57,218.15 78.99,221.45 C76.02,223.11 71.48,224.56 67.83,223.88 C64.54,223.26 62.99,221.55 62.87,219.49 C64.87,217.81 66.61,216.21 67.06,215.7 Z"/><path fill="url(#an)" d="M76.34,214.04 C76.34,214.04 73.8,229.18 73.47,230.61 C73.14,232.05 70.6,234.37 68.83,234.14 C67.06,233.92 66.18,232.81 64.52,231.27 C62.86,229.72 60.21,227.84 60.21,227.84 C60.21,227.84 63.97,224.19 66.29,212.04 L76.34,214.04 Z"/><path fill="#000" d="M73.47,229.51 L75.02,242.1 C75.02,242.1 56.65,249.56 49.17,248.84 C42.32,248.18 39.78,246.85 40.11,244.86 C40.44,242.87 42.43,241.66 45.52,240.11 C48.61,238.56 53.59,235.25 55.02,233.37 C56.46,231.49 60.21,227.85 60.21,227.85 C60.21,227.85 62.42,229.73 65.07,231.72 C67.72,233.71 68.86,234.87 70.15,233.93 C72.58,232.16 73.47,229.51 73.47,229.51 Z"/><path fill="url(#ao)" d="M49.16,248.84 C42.31,248.18 39.77,246.85 40.1,244.86 C40.26,243.92 40.79,243.15 41.63,242.44 C44.54,244.17 48.53,244.78 56.89,243.54 C64.68,242.38 71.54,239.29 74.48,237.82 L75.01,242.1 C75.01,242.1 56.65,249.57 49.16,248.84 Z"/><path fill="#650039" d="M62.12,112.92 C63.3,100.99 65.73,89.21 65.73,89.21 L71.48,87.6 C70.89,91.39 69.97,98.52 70.6,103.35 C71.48,110.2 73.69,113.29 73.69,113.29 L65.51,153.5 C65.51,153.5 65.45,153.51 65.33,153.51 C64.91,151.65 63.85,146.87 63.16,142.82 C62.27,137.67 60.95,124.85 62.12,112.92 Z"/><path fill="url(#ap)" d="M100.42,79.49 C100.42,79.49 95.41,71.09 90.4,61.22 C85.39,51.35 78.91,41.04 70.66,35.74 C62.41,30.44 56.67,28.38 47.68,28.52 C38.69,28.67 37.07,29.7 37.07,29.7 L34.12,42.66 C34.12,42.66 46.05,54.3 53.56,63.87 C61.07,73.44 65.71,89.21 65.71,89.21 L100.42,79.49 Z"/><path fill="url(#aq)" d="M59.03,44.87 C59.03,44.87 60.21,50.17 61.39,60.19 C62.57,70.21 61.98,71.83 61.98,71.83 C61.98,71.83 59.33,73.16 53.44,73.6 C47.55,74.04 47.55,74.04 47.55,74.04 C47.55,74.04 45.63,63.29 43.57,57.98 C41.51,52.68 37.09,47.52 37.53,41.48"/><path fill="url(#ar)" d="M61.65,71.97 C62.08,71.85 61.87,90.2 61.21,91.86 C60.55,93.52 53.26,102.36 44.86,109.09 C36.46,115.83 33.92,117.04 33.92,117.04 C33.92,117.04 32.26,119.58 26.08,124.33 C19.89,129.08 16.03,126.87 16.03,126.87 C16.03,126.87 12.6,123.67 12.72,122.78 C12.83,121.9 20.56,117.37 20.56,117.37 C20.56,117.37 14.15,119.8 13.6,119.69 C13.05,119.58 13.49,117.7 17.36,115.82 C21.23,113.94 24.54,112.4 26.97,111.95 C29.4,111.51 31.06,111.51 31.06,111.51 L49.29,89.75 L48.74,73.73 C48.72,73.74 54.58,73.96 61.65,71.97 Z"/><path fill="url(#as)" d="M37.01,30.07 C37.01,30.07 33.33,30.14 31.19,29.41 C29.05,28.67 27.58,26.46 27.58,26.46 C27.58,26.46 29.71,24.99 29.2,22.11 C28.68,19.24 26.68,16.66 24.71,17.03 C21.54,17.62 20.88,22.11 20.88,22.11 L3.2,21.23 C3.2,21.23 3.86,24.84 5.04,27.05 C6.22,29.26 8.5,30.51 8.5,30.51 C8.5,30.51 7.84,37.51 8.21,37.95 C8.58,38.39 12.19,38.17 12.19,38.17 C12.19,38.17 12.34,39.35 12.56,39.79 C12.78,40.23 13.81,40.01 13.81,40.01 C13.81,40.01 13.44,40.82 14.18,41.04 C14.92,41.26 16.24,41.04 16.61,41.63 C16.98,42.22 19.04,44.43 20.44,43.54 C21.84,42.66 24.34,38.53 25.45,38.53 C26.56,38.53 33.99,42.36 33.99,42.36 L37.3,30.06"/><path fill="#000" d="M5.19 7.31C10.64.46 19.63-1.01 26.11 1.71 32.59 4.43 38.04 15.26 39.59 18.94 41.14 22.62 43.12 21.37 45.41 22.77 47.69 24.17 49.17 28.51 49.17 28.51 49.17 28.51 45.12 28.59 43.35 28.66 42.12 28.71 37.61 29.54 37.61 29.54L37.02 30.06C37.02 30.06 33.34 30.13 31.2 29.4 29.06 28.66 27.59 26.45 27.59 26.45 27.59 26.45 29.72 24.98 29.21 22.1 28.69 19.23 26.69 16.65 24.72 17.02 21.55 17.61 20.89 22.1 20.89 22.1L3.21 21.22C3.21 21.22 3.23 21.33 3.27 21.5 3.19 21.46 3.14 21.44 3.14 21.44L1.15 21.22C1.14 21.23-.26 14.16 5.19 7.31zM10.55 38.22C11.42 38.21 12.19 38.17 12.19 38.17 12.19 38.17 12.34 39.35 12.56 39.79 12.78 40.23 13.81 40.01 13.81 40.01 13.81 40.01 13.44 40.82 14.18 41.04 14.92 41.26 16.24 41.04 16.61 41.63 16.98 42.22 19.04 44.43 20.44 43.54 21.77 42.7 24.11 38.91 25.28 38.57 25.34 38.56 25.39 38.55 25.44 38.54 26.55 38.54 33.98 42.37 33.98 42.37L38.55 46.94C38.55 46.94 38.99 48.27 42.08 54.89 45.17 61.52 46.2 68 46.2 68.44 46.2 68.88 40.16 71.39 36.18 69.77 32.2 68.15 27.93 68.15 23.22 68.15 18.51 68.15 14.97 64.17 14.97 64.17 14.97 64.17 14.53 58.72 14.68 52.98 14.83 47.81 11.27 39.79 10.55 38.22z"/></g></g><g fill="#000" fill-rule="nonzero" transform="translate(511 366)"><polygon points="11.36 6.95 74.05 6.95 71.34 .94 8.89 .94"/><polygon points="128.98 136.9 121.55 136.9 68.22 .08 76.35 .08"/><polygon points="61.98 136.9 54.55 136.9 .76 .08 8.89 .08"/><polygon points="50.96 109 113.65 109 110.94 102.99 48.48 102.99"/><polygon points="37.76 74.82 100.45 74.82 97.74 68.81 35.28 68.81"/><polygon points="24.44 41.36 87.13 41.36 84.42 35.35 21.97 35.35"/></g><g fill="#A600A9" fill-rule="nonzero" transform="translate(456 366)"><polygon points="119.62 7.08 56.93 7.08 59.64 1.07 122.1 1.07"/><polygon points=".72 140.94 8.14 140.94 62.76 .21 54.63 .21"/><polygon points="67.54 140.94 74.96 140.94 130.23 .21 122.1 .21"/><polygon points="80.03 109.13 17.34 109.13 20.05 103.12 82.5 103.12"/><polygon points="93.23 74.95 30.53 74.95 33.24 68.94 95.7 68.94"/><polygon points="106.54 41.49 43.85 41.49 46.56 35.48 109.02 35.48"/></g><g fill="#FFF" fill-rule="nonzero" transform="translate(90 80)"><circle cx="2.11" cy="74.76" r="1.45"/><circle cx="55.06" cy="54.22" r="1.45"/><circle cx="99.32" cy="64.62" r="1.45"/><circle cx="151.2" cy="31.15" r="1.45"/><circle cx="172.83" cy="80.56" r="1.45"/><circle cx="222.07" cy="2.31" r="1.45"/><circle cx="245.71" cy="55.68" r="1.45"/></g></g></svg>